<?xml version="1.0" encoding="UTF-8"?>
<svg version="1.1" xmlns="http://www.w3.org/2000/svg" width="515" height="184">
<path d="M0 0 C169.95 0 339.9 0 515 0 C515 60.72 515 121.44 515 184 C345.05 184 175.1 184 0 184 C0 123.28 0 62.56 0 0 Z " fill="#FDFDFD" transform="translate(0,0)"/>
<path d="M0 0 C7.34342801 4.15910967 13.31132888 10.93398663 16 19 C16.0806622 20.48123547 16.10761193 21.96582204 16.09765625 23.44921875 C16.09282227 24.72055664 16.09282227 24.72055664 16.08789062 26.01757812 C16.07532227 27.33918945 16.07532227 27.33918945 16.0625 28.6875 C16.05798828 29.58017578 16.05347656 30.47285156 16.04882812 31.39257812 C16.03704983 33.59511987 16.02060164 35.79752599 16 38 C17.74023438 37.89558594 17.74023438 37.89558594 19.515625 37.7890625 C29.40647041 37.37769493 37.92782698 37.42155619 46 44 C46.80859375 46.203125 46.80859375 46.203125 47 48 C47.66 48 48.32 48 49 48 C49 48.66 49 49.32 49 50 C49.99 50 50.98 50 52 50 C52.33 51.98 52.66 53.96 53 56 C53.99 56.33 54.98 56.66 56 57 C58.59138328 64.77414984 58.70101995 76.34535175 55.66015625 83.98828125 C54.23821581 86.78197599 52.76691474 89.41273199 51 92 C50.34 92 49.68 92 49 92 C49 92.66 49 93.32 49 94 C48.34 94 47.68 94 47 94 C46.79375 94.5775 46.5875 95.155 46.375 95.75 C43.81569909 99.93794694 40.06831417 101.61152212 35.5625 103.25 C29.21280007 104.66656711 22.47076967 104.15165866 16 104 C16.04640625 104.95519531 16.0928125 105.91039063 16.140625 106.89453125 C16.47170196 118.75418087 14.70720758 127.74978946 6.85546875 137.125 C0.93366367 143.10913987 -6.95697432 145.20732326 -15.20336914 145.38037109 C-22.62396387 145.36201774 -28.60022761 145.17944319 -35 141 C-35.69351563 140.5875 -36.38703125 140.175 -37.1015625 139.75 C-42.17695867 136.4044205 -44.89406296 132.48021912 -47.7734375 127.171875 C-48.93785682 124.8834855 -48.93785682 124.8834855 -51 123 C-51.22705078 121.02880859 -51.22705078 121.02880859 -51.1953125 118.6484375 C-51.18886719 117.79765625 -51.18242188 116.946875 -51.17578125 116.0703125 C-51.15902344 115.18085938 -51.14226562 114.29140625 -51.125 113.375 C-51.11597656 112.4778125 -51.10695312 111.580625 -51.09765625 110.65625 C-51.0740497 108.43723414 -51.0411231 106.21874923 -51 104 C-52.2065625 104.04640625 -53.413125 104.0928125 -54.65625 104.140625 C-56.27080836 104.17817287 -57.88539378 104.21456977 -59.5 104.25 C-60.29148437 104.28351563 -61.08296875 104.31703125 -61.8984375 104.3515625 C-69.11952384 104.46994096 -74.20819452 102.45944769 -79.625 97.6875 C-80.40875 96.800625 -81.1925 95.91375 -82 95 C-82.74056641 94.26330078 -82.74056641 94.26330078 -83.49609375 93.51171875 C-89.94172768 86.77675461 -92.2088631 79.0900612 -92.4375 69.875 C-92.06265048 59.75406306 -89.77054221 53.65656911 -82.62890625 46.30859375 C-72.79277608 37.67092223 -63.43761257 37.20422858 -51 38 C-51.04640625 37.04480469 -51.0928125 36.08960938 -51.140625 35.10546875 C-51.4807378 22.92214222 -49.37168146 14.43234117 -41.78125 4.58203125 C-40 3 -40 3 -36 3 C-36 2.01 -36 1.02 -36 0 C-24.50555553 -6.05824838 -11.53847009 -5.94574948 0 0 Z " fill="#FAFCF9" transform="translate(129,18)"/>
<path d="M0 0 C1.93166016 0.01740234 1.93166016 0.01740234 3.90234375 0.03515625 C5.19269531 0.04417969 6.48304687 0.05320312 7.8125 0.0625 C8.81152344 0.07410156 9.81054688 0.08570312 10.83984375 0.09765625 C10.87722656 1.03867188 10.91460937 1.9796875 10.953125 2.94921875 C11.05173828 4.81707031 11.05173828 4.81707031 11.15234375 6.72265625 C11.23935547 8.56730469 11.23935547 8.56730469 11.328125 10.44921875 C12.04467531 15.55805838 13.55024593 18.90477827 17.33984375 22.41015625 C22.70628513 26.03250418 28.5824703 25.58335147 34.83984375 25.09765625 C37.3921482 24.33151949 39.45157092 23.31719982 41.83984375 22.09765625 C42.82984375 22.09765625 43.81984375 22.09765625 44.83984375 22.09765625 C46.64094542 14.76864507 48.20205355 7.62358058 48.83984375 0.09765625 C53.45984375 0.09765625 58.07984375 0.09765625 62.83984375 0.09765625 C63.43684379 13.31457379 62.56001128 23.63794129 53.6953125 34.22265625 C47.77350742 40.20679612 39.88286943 42.30497951 31.63647461 42.47802734 C24.21587988 42.45967399 18.23961614 42.27709944 11.83984375 38.09765625 C10.79957031 37.47890625 10.79957031 37.47890625 9.73828125 36.84765625 C4.66288508 33.50207675 1.94578079 29.57787537 -0.93359375 24.26953125 C-2.09801307 21.98114175 -2.09801307 21.98114175 -4.16015625 20.09765625 C-4.40307617 18.14233398 -4.40307617 18.14233398 -4.390625 15.78125 C-4.38869141 14.93498047 -4.38675781 14.08871094 -4.38476562 13.21679688 C-4.37251953 12.33185547 -4.36027344 11.44691406 -4.34765625 10.53515625 C-4.34701172 9.64634766 -4.34636719 8.75753906 -4.34570312 7.84179688 C-4.29277997 0.13265698 -4.29277997 0.13265698 0 0 Z " fill="#1793C9" transform="translate(82.16015625,120.90234375)"/>
<path d="M0 0 C7.34342801 4.15910967 13.31132888 10.93398663 16 19 C16.0806622 20.48123547 16.10761193 21.96582204 16.09765625 23.44921875 C16.09282227 24.72055664 16.09282227 24.72055664 16.08789062 26.01757812 C16.07532227 27.33918945 16.07532227 27.33918945 16.0625 28.6875 C16.05798828 29.58017578 16.05347656 30.47285156 16.04882812 31.39257812 C16.03705004 33.59508073 16.01911481 35.79754885 16 38 C11.38 38 6.76 38 2 38 C1.9175 35.81375 1.835 33.6275 1.75 31.375 C1.23710505 24.21614226 0.34552489 20.94000672 -5.0625 16.1875 C-10.44790839 12.88676583 -16.91221662 13.44721778 -23 14 C-25.98934547 15.04353676 -28.26870254 16.35091474 -31 18 C-31.66 18 -32.32 18 -33 18 C-34.62875999 22.4482941 -35.50525722 26.68266178 -36.125 31.375 C-36.41375 33.56125 -36.7025 35.7475 -37 38 C-41.62 38 -46.24 38 -51 38 C-51.49271002 24.57365187 -50.21585974 15.52785435 -41.78125 4.58203125 C-40 3 -40 3 -36 3 C-36 2.01 -36 1.02 -36 0 C-24.50555553 -6.05824838 -11.53847009 -5.94574948 0 0 Z " fill="#1893C8" transform="translate(129,18)"/>
<path d="M0 0 C0 4.62 0 9.24 0 14 C-5.61 14 -11.22 14 -17 14 C-17.66 15.32 -18.32 16.64 -19 18 C-20.03125 18.66 -21.0625 19.32 -22.125 20 C-24.39002928 21.8098028 -24.94236034 22.71773521 -25.53125 25.6015625 C-25.76377319 33.1004355 -23.91689729 39.17047743 -21 46 C-20.67 46.99 -20.34 47.98 -20 49 C-15.93917211 51.24836798 -11.73105983 51.4163006 -7.1875 51.625 C-6.14819336 51.68300781 -6.14819336 51.68300781 -5.08789062 51.7421875 C-3.39232985 51.83573568 -1.69620288 51.91892364 0 52 C0 56.62 0 61.24 0 66 C-3.00099588 66.10890711 -5.99796378 66.18773555 -9 66.25 C-9.83917969 66.28351563 -10.67835937 66.31703125 -11.54296875 66.3515625 C-18.94111955 66.46626251 -24.06624506 64.5844984 -29.625 59.6875 C-30.40875 58.800625 -31.1925 57.91375 -32 57 C-32.74056641 56.26330078 -32.74056641 56.26330078 -33.49609375 55.51171875 C-39.94172768 48.77675461 -42.2088631 41.0900612 -42.4375 31.875 C-42.0626978 21.75534066 -39.77278624 15.65111135 -32.625 8.30859375 C-22.51433409 -0.58337582 -12.7806115 -0.76683669 0 0 Z " fill="#A1C949" transform="translate(79,56)"/>
<path d="M0 0 C22.24554153 -1.25654732 22.24554153 -1.25654732 31 6 C31.8046875 8.203125 31.8046875 8.203125 32 10 C32.66 10 33.32 10 34 10 C34 10.66 34 11.32 34 12 C34.99 12 35.98 12 37 12 C37.495 14.97 37.495 14.97 38 18 C38.99 18.33 39.98 18.66 41 19 C43.59138328 26.77414984 43.70101995 38.34535175 40.66015625 45.98828125 C39.23821581 48.78197599 37.76691474 51.41273199 36 54 C35.34 54 34.68 54 34 54 C34 54.66 34 55.32 34 56 C33.34 56 32.68 56 32 56 C31.690625 56.86625 31.690625 56.86625 31.375 57.75 C28.81569909 61.93794694 25.06831417 63.61152212 20.5625 65.25 C14.25058044 66.64306037 7.42082424 66.34816575 1 66 C0 65 0 65 -0.09765625 62.05859375 C-0.08605469 60.86363281 -0.07445312 59.66867188 -0.0625 58.4375 C-0.05347656 57.23996094 -0.04445312 56.04242188 -0.03515625 54.80859375 C-0.02355469 53.88175781 -0.01195312 52.95492187 0 52 C0.96421875 52.01160156 1.9284375 52.02320313 2.921875 52.03515625 C4.81679687 52.04869141 4.81679687 52.04869141 6.75 52.0625 C8.62945312 52.07990234 8.62945312 52.07990234 10.546875 52.09765625 C13.28536501 52.02021027 15.41880293 51.82780815 18 51 C18 50.34 18 49.68 18 49 C18.93585938 48.62294922 18.93585938 48.62294922 19.890625 48.23828125 C23.08407901 46.36360547 23.44440661 44.21223436 24.46875 40.77734375 C25.77917257 33.92653166 25.55845438 26.78681746 24 20 C23.34 20 22.68 20 22 20 C22 19.34 22 18.68 22 18 C21.34 18 20.68 18 20 18 C20 17.34 20 16.68 20 16 C15.75266168 15.01857619 11.52675467 14.69079621 7.1875 14.4375 C6.14819336 14.37272461 6.14819336 14.37272461 5.08789062 14.30664062 C3.39211314 14.20138547 1.69607948 14.10027137 0 14 C0 9.38 0 4.76 0 0 Z " fill="#A0CA44" transform="translate(144,56)"/>
<path d="M0 0 C3.96 0 7.92 0 12 0 C12.33 4.95 12.66 9.9 13 15 C14.80597656 14.98259766 14.80597656 14.98259766 16.6484375 14.96484375 C18.22395679 14.95546566 19.79947775 14.94636548 21.375 14.9375 C22.1690625 14.92912109 22.963125 14.92074219 23.78125 14.91210938 C29.7734375 14.88671875 29.7734375 14.88671875 32 16 C32 10.72 32 5.44 32 0 C35.63 0 39.26 0 43 0 C43 16.5 43 33 43 50 C39.37 50 35.74 50 32 50 C31.67 42.74 31.34 35.48 31 28 C27.77717587 26.92572529 25.38488847 26.8667037 22 26.875 C20.948125 26.87242188 19.89625 26.86984375 18.8125 26.8671875 C15.91873122 26.87646365 15.91873122 26.87646365 13 28 C12.67 35.26 12.34 42.52 12 50 C8.04 50 4.08 50 0 50 C0 33.5 0 17 0 0 Z " fill="#1A83B8" transform="translate(90,64)"/>
<path d="M0 0 C4.33333333 0 8.66666667 0 13 0 C13.85335938 -0.05800781 14.70671875 -0.11601563 15.5859375 -0.17578125 C24.04260868 -0.59032395 24.04260868 -0.59032395 27.5625 2.3125 C32.35889103 7.60082857 32.37316628 10.90002169 32.25 17.828125 C31.84843528 22.92297733 30.21548841 25.60034667 26.9375 29.375 C22.69321749 31.72290096 18.7542061 31.49153656 14 31 C13.01 30.67 12.02 30.34 11 30 C10.34 33.3 9.68 36.6 9 40 C6.03 40 3.06 40 0 40 C0 26.8 0 13.6 0 0 Z " fill="#165EA0" transform="translate(311,77)"/>
<path d="M0 0 C4.35759141 3.07012122 8.13076357 5.97267105 9.265625 11.40625 C9.50336039 17.0439749 8.56871004 20.60274806 4.75 24.9375 C-0.95348471 29.96199844 -4.52996742 30.28943741 -12.0390625 30.21484375 C-16.18802363 29.85647849 -18.30407134 28.88342866 -21.25 25.9375 C-24.48628696 21.51457449 -24.93612394 17.05160266 -24.8046875 11.69921875 C-23.84830968 6.93753482 -20.94678725 3.93550429 -17.25 0.9375 C-11.96969004 -2.33329929 -5.73989671 -1.87650469 0 0 Z " fill="#1861A0" transform="translate(268.25,78.0625)"/>
<path d="M0 0 C2.64 0 5.28 0 8 0 C8 5.28 8 10.56 8 16 C13.28 16 18.56 16 24 16 C24 10.72 24 5.44 24 0 C26.97 0 29.94 0 33 0 C33 13.2 33 26.4 33 40 C30.03 40 27.06 40 24 40 C24 34.72 24 29.44 24 24 C18.72 24 13.44 24 8 24 C8 29.28 8 34.56 8 40 C5.36 40 2.72 40 0 40 C0 26.8 0 13.6 0 0 Z " fill="#0E5BA0" transform="translate(204,68)"/>
<path d="M0 0 C3.60449037 1.93585479 6.16739644 4.33479287 8 8 C8.08449628 9.7404417 8.10723024 11.48409722 8.09765625 13.2265625 C8.09443359 14.2578125 8.09121094 15.2890625 8.08789062 16.3515625 C8.07951172 17.43179688 8.07113281 18.51203125 8.0625 19.625 C8.05798828 20.71296875 8.05347656 21.8009375 8.04882812 22.921875 C8.03701776 25.61463789 8.02054778 28.30729188 8 31 C4 31 0 31 -4 31 C-4.928125 31.03480469 -5.85625 31.06960937 -6.8125 31.10546875 C-7.864375 31.13253906 -8.91625 31.15960938 -10 31.1875 C-11.051875 31.22230469 -12.10375 31.25710937 -13.1875 31.29296875 C-16 31 -16 31 -17.8125 29.61328125 C-20.68086308 25.71645904 -20.62603865 21.69111632 -20 17 C-18.12379387 14.49839182 -16.76108697 13.38054348 -14 12 C-11.95944995 11.92934383 -9.91665743 11.91578024 -7.875 11.9375 C-6.77929688 11.94652344 -5.68359375 11.95554687 -4.5546875 11.96484375 C-3.71164062 11.97644531 -2.86859375 11.98804687 -2 12 C-2.33 11.34 -2.66 10.68 -3 10 C-6.04581269 9.53045739 -6.04581269 9.53045739 -9.5625 9.375 C-10.76003906 9.30023438 -11.95757812 9.22546875 -13.19140625 9.1484375 C-14.11824219 9.09945312 -15.04507812 9.05046875 -16 9 C-16.33 6.69 -16.66 4.38 -17 2 C-11.78916504 -1.14425078 -5.86969704 -0.84158475 0 0 Z " fill="#1660A2" transform="translate(408,77)"/>
<path d="M0 0 C4.62 0 9.24 0 14 0 C14.5951773 13.17656404 13.71042075 23.51252218 4.94921875 34.1171875 C1.93470203 37.02900526 -1.12927439 38.43812826 -5 40 C-5 39.34 -5 38.68 -5 38 C-5.86625 37.896875 -6.7325 37.79375 -7.625 37.6875 C-11.16683123 36.96601586 -13.84312042 35.72876739 -17 34 C-17 33.01 -17 32.02 -17 31 C-17.9075 30.87625 -18.815 30.7525 -19.75 30.625 C-22.58970323 30.07890323 -24.52590591 29.42736197 -27 28 C-26.505 26.515 -26.505 26.515 -26 25 C-25.21496094 25.03480469 -24.42992188 25.06960937 -23.62109375 25.10546875 C-17.14707176 25.27228404 -12.75689219 24.93968963 -7 22 C-6.01 22 -5.02 22 -4 22 C-2.19889833 14.67098882 -0.6377902 7.52592433 0 0 Z " fill="#72BEE0" transform="translate(131,121)"/>
<path d="M0 0 C1.35300732 0.97321579 2.68241698 1.9793371 4 3 C6.14474685 3.88822849 8.31429621 4.71795919 10.5 5.5 C18.10918854 8.2225537 18.10918854 8.2225537 21 11 C21 11.99 21 12.98 21 14 C19.948125 14.03867187 19.948125 14.03867187 18.875 14.078125 C12.20387098 14.4769425 7.80586802 15.72760166 2 19 C1.34 19 0.68 19 0 19 C-1.62875999 23.4482941 -2.50525722 27.68266178 -3.125 32.375 C-3.41375 34.56125 -3.7025 36.7475 -4 39 C-8.62 39 -13.24 39 -18 39 C-18.49271002 25.57365187 -17.21585974 16.52785435 -8.78125 5.58203125 C-7 4 -7 4 -3 4 C-3 3.01 -3 2.02 -3 1 C-2.01 0.67 -1.02 0.34 0 0 Z " fill="#81C5E1" transform="translate(96,17)"/>
<path d="M0 0 C22.24554153 -1.25654732 22.24554153 -1.25654732 31 6 C31.8046875 8.203125 31.8046875 8.203125 32 10 C32.66 10 33.32 10 34 10 C34 10.66 34 11.32 34 12 C34.99 12 35.98 12 37 12 C37.495 14.97 37.495 14.97 38 18 C38.99 18.33 39.98 18.66 41 19 C40.67 19.66 40.34 20.32 40 21 C39.01 21.33 38.02 21.66 37 22 C35.98245132 23.8653245 35.98245132 23.8653245 35.3125 26.0625 C34.93544922 27.16271484 34.93544922 27.16271484 34.55078125 28.28515625 C34.36902344 28.85105469 34.18726563 29.41695312 34 30 C33.34 30 32.68 30 32 30 C32 30.66 32 31.32 32 32 C31.34 32 30.68 32 30 32 C30 32.66 30 33.32 30 34 C29.34 34 28.68 34 28 34 C28 36.64 28 39.28 28 42 C26.02 42.495 26.02 42.495 24 43 C24.16242188 42.3090625 24.32484375 41.618125 24.4921875 40.90625 C25.04941652 37.71718547 25.13256153 34.7363363 25.125 31.5 C25.12757813 30.3965625 25.13015625 29.293125 25.1328125 28.15625 C25.01325821 25.31507756 24.64925815 22.76192358 24 20 C23.34 20 22.68 20 22 20 C22 19.34 22 18.68 22 18 C21.34 18 20.68 18 20 18 C20 17.34 20 16.68 20 16 C15.75266168 15.01857619 11.52675467 14.69079621 7.1875 14.4375 C6.14819336 14.37272461 6.14819336 14.37272461 5.08789062 14.30664062 C3.39211314 14.20138547 1.69607948 14.10027137 0 14 C0 9.38 0 4.76 0 0 Z " fill="#BBD66D" transform="translate(144,56)"/>
<path d="M0 0 C1.9375 0.75 1.9375 0.75 3.9375 1.75 C4.97265625 4.1484375 4.97265625 4.1484375 6 7.125 C6.51240234 8.59066406 6.51240234 8.59066406 7.03515625 10.0859375 C7.67409595 11.97233089 8.30768066 13.86054199 8.9375 15.75 C12.99832789 17.99836798 17.20644017 18.1663006 21.75 18.375 C22.78930664 18.43300781 22.78930664 18.43300781 23.84960938 18.4921875 C25.54517015 18.58573568 27.24129712 18.66892364 28.9375 18.75 C28.9375 23.37 28.9375 27.99 28.9375 32.75 C25.93650412 32.85890711 22.93953622 32.93773555 19.9375 33 C18.67873047 33.05027344 18.67873047 33.05027344 17.39453125 33.1015625 C9.99638045 33.21626251 4.87125494 31.3344984 -0.6875 26.4375 C-1.47125 25.550625 -2.255 24.66375 -3.0625 23.75 C-3.59101562 23.17765625 -4.11953125 22.6053125 -4.6640625 22.015625 C-9.30554425 16.86819974 -9.30554425 16.86819974 -10.0625 12.75 C-9.4025 12.75 -8.7425 12.75 -8.0625 12.75 C-7.78986328 11.71939453 -7.78986328 11.71939453 -7.51171875 10.66796875 C-7.26035156 9.76691406 -7.00898437 8.86585937 -6.75 7.9375 C-6.50636719 7.04417969 -6.26273438 6.15085937 -6.01171875 5.23046875 C-4.80025784 2.06471699 -3.66219836 -0.44390283 0 0 Z " fill="#BED86E" transform="translate(50.0625,89.25)"/>
<path d="M0 0 C0.804375 0.495 1.60875 0.99 2.4375 1.5 C1.7775 3.48 1.1175 5.46 0.4375 7.5 C-3.59242782 6.94687265 -7.58272924 6.3441938 -11.5625 5.5 C-8.44815002 9.29138259 -5.02721853 10.78494703 -0.5859375 12.5703125 C1.4375 13.5 1.4375 13.5 3.4375 15.5 C3.98664197 24.01170047 3.98664197 24.01170047 1.4375 27.5 C-2.20646001 29.92930667 -4.10162081 29.79874985 -8.4375 29.8125 C-9.65179688 29.82925781 -10.86609375 29.84601563 -12.1171875 29.86328125 C-15.74989025 29.48024116 -17.63026093 28.61277302 -20.5625 26.5 C-20.3125 24.125 -20.3125 24.125 -19.5625 21.5 C-17.625 20.125 -17.625 20.125 -15.5625 19.5 C-14.9025 19.83 -14.2425 20.16 -13.5625 20.5 C-13.5625 21.16 -13.5625 21.82 -13.5625 22.5 C-10.9225 22.83 -8.2825 23.16 -5.5625 23.5 C-5.5625 22.18 -5.5625 20.86 -5.5625 19.5 C-6.57570313 19.26216797 -6.57570313 19.26216797 -7.609375 19.01953125 C-11.74108709 17.93883777 -14.87354473 17.07412939 -18.1875 14.3125 C-20.1162018 10.36742815 -19.98602995 7.87647619 -19.5625 3.5 C-15.15293164 -3.11435254 -6.7728447 -2.85172408 0 0 Z " fill="#1A5FA1" transform="translate(301.5625,78.5)"/>
<path d="M0 0 C3.96 0 7.92 0 12 0 C12 5.28 12 10.56 12 16 C10.370625 16.598125 8.74125 17.19625 7.0625 17.8125 C4.25160124 19.04881707 4.25160124 19.04881707 2 21 C0.81762504 24.70859458 0.76980829 28.13413333 1 32 C1.99 32 2.98 32 4 32 C4 31.34 4 30.68 4 30 C6.90600261 28.74335022 8.79604584 28 12 28 C12 35.26 12 42.52 12 50 C8.04 50 4.08 50 0 50 C0 33.5 0 17 0 0 Z " fill="#A1CC4E" transform="translate(90,64)"/>
<path d="M0 0 C2.64 0 5.28 0 8 0 C8 2.64 8 5.28 8 8 C10.31 8 12.62 8 15 8 C15 10.31 15 12.62 15 15 C12.69 15 10.38 15 8 15 C8.66 19.62 9.32 24.24 10 29 C11.65 29.33 13.3 29.66 15 30 C15.04241723 32.33294775 15.04092937 34.66702567 15 37 C14 38 14 38 11.56640625 38.1328125 C10.07947266 38.12894531 10.07947266 38.12894531 8.5625 38.125 C7.57378906 38.12757812 6.58507812 38.13015625 5.56640625 38.1328125 C3 38 3 38 1 37 C0.05862745 34.17588235 -0.11725382 32.47081968 -0.09765625 29.55078125 C-0.09282227 28.27944336 -0.09282227 28.27944336 -0.08789062 26.98242188 C-0.07951172 26.10134766 -0.07113281 25.22027344 -0.0625 24.3125 C-0.05798828 23.41982422 -0.05347656 22.52714844 -0.04882812 21.60742188 C-0.03704983 19.40488013 -0.02060164 17.20247401 0 15 C-1.32 15 -2.64 15 -4 15 C-4 12.36 -4 9.72 -4 7 C-2.68 7 -1.36 7 0 7 C0 4.69 0 2.38 0 0 Z " fill="#105B9F" transform="translate(368,70)"/>
<path d="M0 0 C2.97 0 5.94 0 9 0 C9 13.86 9 27.72 9 42 C6.03 42 3.06 42 0 42 C0 28.14 0 14.28 0 0 Z " fill="#1C61A6" transform="translate(423,66)"/>
<path d="M0 0 C5.61 0 11.22 0 17 0 C17 4.62 17 9.24 17 14 C13.89560214 14.0538854 10.79213693 14.09361739 7.6875 14.125 C6.36588867 14.15013672 6.36588867 14.15013672 5.01757812 14.17578125 C4.17001953 14.18222656 3.32246094 14.18867187 2.44921875 14.1953125 C1.66893311 14.20578613 0.88864746 14.21625977 0.0847168 14.22705078 C-2 14 -2 14 -5 12 C-4.67 9.03 -4.34 6.06 -4 3 C-2.68 2.67 -1.36 2.34 0 2 C0 1.34 0 0.68 0 0 Z " fill="#B5D254" transform="translate(62,108)"/>
<path d="M0 0 C4.62 0 9.24 0 14 0 C14 5.28 14 10.56 14 16 C8 18 8 18 6 18 C5.67 19.65 5.34 21.3 5 23 C4.34 23 3.68 23 3 23 C3 21.68 3 20.36 3 19 C2.01 19 1.02 19 0 19 C0 12.73 0 6.46 0 0 Z " fill="#4FAED5" transform="translate(131,121)"/>
<path d="M0 0 C3.14588944 -0.02683697 6.29155271 -0.04675902 9.4375 -0.0625 C10.33533203 -0.07087891 11.23316406 -0.07925781 12.15820312 -0.08789062 C13.01220703 -0.09111328 13.86621094 -0.09433594 14.74609375 -0.09765625 C15.93223267 -0.10551147 15.93223267 -0.10551147 17.14233398 -0.11352539 C19 0 19 0 20 1 C20.07179964 2.51928038 20.08392007 4.04167482 20.0625 5.5625 C20.05347656 6.38878906 20.04445312 7.21507812 20.03515625 8.06640625 C20.02355469 8.70449219 20.01195312 9.34257813 20 10 C19.34 10 18.68 10 18 10 C18 10.66 18 11.32 18 12 C9.09 12.99 9.09 12.99 0 14 C0 9.38 0 4.76 0 0 Z " fill="#B3D24D" transform="translate(144,56)"/>
<path d="M0 0 C2.64 0 5.28 0 8 0 C8 9.9 8 19.8 8 30 C5.36 30 2.72 30 0 30 C0 20.1 0 10.2 0 0 Z " fill="#07589E" transform="translate(350,78)"/>
<path d="M0 0 C2.475 0.495 2.475 0.495 5 1 C5 1.66 5 2.32 5 3 C5.78375 2.95875 6.5675 2.9175 7.375 2.875 C10 3 10 3 12 5 C12.22705078 6.87939453 12.22705078 6.87939453 12.1953125 9.1328125 C12.18564453 10.34130859 12.18564453 10.34130859 12.17578125 11.57421875 C12.15902344 12.41597656 12.14226562 13.25773437 12.125 14.125 C12.11597656 14.97449219 12.10695312 15.82398437 12.09765625 16.69921875 C12.07405647 18.79959884 12.03818483 20.89983444 12 23 C8.37 23 4.74 23 1 23 C0.67 15.41 0.34 7.82 0 0 Z " fill="#AACC3A" transform="translate(121,91)"/>
<path d="M0 0 C1.16402344 0.12761719 1.16402344 0.12761719 2.3515625 0.2578125 C4.375 0.875 4.375 0.875 6.375 3.875 C6.81365483 8.40776656 6.9120021 10.80099581 4.875 14.875 C2.26437354 16.96350117 1.50821611 17.2550558 -1.6875 17.4375 C-5.625 16.875 -5.625 16.875 -7.34375 15.15625 C-8.83151518 12.50730224 -9.0579403 10.83558181 -9.0625 7.8125 C-9.08183594 6.95527344 -9.10117188 6.09804687 -9.12109375 5.21484375 C-8.625 2.875 -8.625 2.875 -6.88671875 1.05859375 C-4.24736515 -0.32262238 -2.92791942 -0.38190253 0 0 Z " fill="#E8F2F7" transform="translate(261.625,84.125)"/>
<path d="M0 0 C3.63 0 7.26 0 11 0 C11 7.26 11 14.52 11 22 C0.125 18.25 0.125 18.25 -1 16 C-0.91075148 13.2764805 -0.76646668 10.58986689 -0.5625 7.875 C-0.51029297 7.12089844 -0.45808594 6.36679688 -0.40429688 5.58984375 C-0.27454996 3.7262063 -0.13792512 1.86305004 0 0 Z " fill="#9DC749" transform="translate(122,64)"/>
<path d="M0 0 C0.99 0 1.98 0 3 0 C3 7.26 3 14.52 3 22 C-0.96 22 -4.92 22 -9 22 C-9 16.72 -9 11.44 -9 6 C-6.36 6 -3.72 6 -1 6 C-1.020625 5.195625 -1.04125 4.39125 -1.0625 3.5625 C-1 1 -1 1 0 0 Z " fill="#A8D13F" transform="translate(99,92)"/>
<path d="M0 0 C2 2 2 2 2.265625 4.0234375 C2.26046875 4.79945312 2.2553125 5.57546875 2.25 6.375 C2.25515625 7.14585938 2.2603125 7.91671875 2.265625 8.7109375 C1.97234684 11.2383052 1.34522026 12.84954227 0 15 C-2.84083641 16.42041821 -4.85477278 16.31452272 -8 16 C-10.375 14.5625 -10.375 14.5625 -12 12 C-12.61419251 8.8716363 -12.65228778 6.12411517 -12 3 C-8.40525542 -1.57512947 -5.4143165 -1.43019681 0 0 Z " fill="#ECF5F8" transform="translate(332,85)"/>
<path d="M0 0 C0.99 0.66 1.98 1.32 3 2 C3.33 1.34 3.66 0.68 4 0 C4.0809313 2.60478883 4.14045434 5.20706653 4.1875 7.8125 C4.22520508 8.91948242 4.22520508 8.91948242 4.26367188 10.04882812 C4.33713463 15.46058459 4.33713463 15.46058459 2.75 18 C-0.42610908 19.81491948 -3.41512388 19.17630538 -7 19 C-7.33 18.01 -7.66 17.02 -8 16 C-4.7 16 -1.4 16 2 16 C2 14.68 2 13.36 2 12 C1.01 12.495 1.01 12.495 0 13 C-2.3329866 13.04022391 -4.66706666 13.04320247 -7 13 C-7.33 12.01 -7.66 11.02 -8 10 C-8.66 10 -9.32 10 -10 10 C-10.35915493 3.65492958 -10.35915493 3.65492958 -8.9375 1.0625 C-5.91362524 -0.5957539 -3.37613017 -0.30144019 0 0 Z " fill="#F0F6E1" transform="translate(296,128)"/>
<path d="M0 0 C6.0546875 -0.1953125 6.0546875 -0.1953125 8 0 C10 2 10 2 10.125 5.125 C10.08375 6.07375 10.0425 7.0225 10 8 C6.7 8.33 3.4 8.66 0 9 C0.33 9.66 0.66 10.32 1 11 C3.64 11 6.28 11 9 11 C8.34 12.32 7.68 13.64 7 15 C3.54330418 15.31424507 1.60098323 15.37956836 -1.375 13.5 C-3.73613198 9.86748926 -3.2854378 7.28156703 -3 3 C-2.01 2.67 -1.02 2.34 0 2 C0 1.34 0 0.68 0 0 Z " fill="#C2D58C" transform="translate(346,128)"/>
<path d="M0 0 C2 3 2 3 2 8 C-1.3 8.33 -4.6 8.66 -8 9 C-7.67 9.66 -7.34 10.32 -7 11 C-5.10466658 11.46523063 -5.10466658 11.46523063 -2.9375 11.625 C-1.638125 11.74875 -0.33875 11.8725 1 12 C-0.89557134 14.52742845 -1.80589378 14.97169284 -5 15.4375 C-8 15 -8 15 -9.875 13.5625 C-11.50854511 9.84164726 -11.78745629 5.99904274 -11 2 C-6.91569792 -0.72286806 -4.85409123 -0.38524534 0 0 Z " fill="#C0D586" transform="translate(401,128)"/>
<path d="M0 0 C4.62 0 9.24 0 14 0 C14 1.32 14 2.64 14 4 C12.68 4 11.36 4 10 4 C10 9.94 10 15.88 10 22 C8.68 22 7.36 22 6 22 C6 16.06 6 10.12 6 4 C4.02 4 2.04 4 0 4 C0 2.68 0 1.36 0 0 Z " fill="#F2FAD0" transform="translate(252,122)"/>
<path d="M0 0 C6.0546875 -0.1953125 6.0546875 -0.1953125 8 0 C10 2 10 2 10.1953125 4.8203125 C10.16050781 6.45613281 10.16050781 6.45613281 10.125 8.125 C10.10695313 9.22070312 10.08890625 10.31640625 10.0703125 11.4453125 C10.04710937 12.28835937 10.02390625 13.13140625 10 14 C8.56465159 14.2226746 7.12654475 14.42761906 5.6875 14.625 C4.88699219 14.74101562 4.08648437 14.85703125 3.26171875 14.9765625 C1 15 1 15 -2 13 C-1.125 7.125 -1.125 7.125 0 6 C1.51928038 5.92820036 3.04167482 5.91607993 4.5625 5.9375 C5.38878906 5.94652344 6.21507812 5.95554688 7.06640625 5.96484375 C7.70449219 5.97644531 8.34257812 5.98804688 9 6 C8.67 5.01 8.34 4.02 8 3 C5.36 2.67 2.72 2.34 0 2 C0 1.34 0 0.68 0 0 Z " fill="#BACD7D" transform="translate(270,128)"/>
<path d="M0 0 C2 3 2 3 2 8 C-1.63 8 -5.26 8 -9 8 C-8.34 9.32 -7.68 10.64 -7 12 C-3.43793339 12.81870185 -3.43793339 12.81870185 0 13 C0 13.33 0 13.66 0 14 C-1.45742463 14.08096803 -2.91612807 14.13917774 -4.375 14.1875 C-5.18710937 14.22230469 -5.99921875 14.25710937 -6.8359375 14.29296875 C-7.55007813 14.19628906 -8.26421875 14.09960938 -9 14 C-11.52122604 10.21816094 -11.73098831 7.44144795 -11 3 C-8.06592644 -0.75561415 -4.5026223 -0.50029137 0 0 Z " fill="#C3D487" transform="translate(431,128)"/>
<path d="M0 0 C0.78890625 0.66515625 0.78890625 0.66515625 1.59375 1.34375 C4.44632215 3.30720875 7.24193398 4.33426995 10.5 5.5 C18.10918854 8.2225537 18.10918854 8.2225537 21 11 C21 11.99 21 12.98 21 14 C15.06 13.01 15.06 13.01 9 12 C8.67 11.01 8.34 10.02 8 9 C7.01 8.67 6.02 8.34 5 8 C4.67 7.34 4.34 6.68 4 6 C1.47266765 5.34444881 1.47266765 5.34444881 -1 5 C-0.67 4.01 -0.34 3.02 0 2 C-0.66 1.67 -1.32 1.34 -2 1 C-1.34 0.67 -0.68 0.34 0 0 Z " fill="#50AEDB" transform="translate(96,17)"/>
<path d="M0 0 C1.93166016 0.01740234 1.93166016 0.01740234 3.90234375 0.03515625 C5.19269531 0.04417969 6.48304687 0.05320312 7.8125 0.0625 C8.81152344 0.07410156 9.81054688 0.08570312 10.83984375 0.09765625 C10.83984375 4.05765625 10.83984375 8.01765625 10.83984375 12.09765625 C10.50984375 12.09765625 10.17984375 12.09765625 9.83984375 12.09765625 C9.83984375 8.79765625 9.83984375 5.49765625 9.83984375 2.09765625 C5.87984375 1.76765625 1.91984375 1.43765625 -2.16015625 1.09765625 C-2.16015625 5.71765625 -2.16015625 10.33765625 -2.16015625 15.09765625 C-1.50015625 15.09765625 -0.84015625 15.09765625 -0.16015625 15.09765625 C-0.16015625 17.73765625 -0.16015625 20.37765625 -0.16015625 23.09765625 C-2.140625 22.19921875 -2.140625 22.19921875 -4.16015625 20.09765625 C-4.71261519 16.88575817 -4.58014398 13.72117439 -4.47265625 10.47265625 C-4.46298828 9.58835938 -4.45332031 8.7040625 -4.44335938 7.79296875 C-4.30825495 0.1331352 -4.30825495 0.1331352 0 0 Z " fill="#50A4CA" transform="translate(82.16015625,120.90234375)"/>
<path d="M0 0 C0.33 3.63 0.66 7.26 1 11 C-0.65 11.33 -2.3 11.66 -4 12 C-4 12.66 -4 13.32 -4 14 C-4.99 14 -5.98 14 -7 14 C-7.28328822 10.29207191 -7.45269973 6.69795687 -7 3 C-4.54305747 0.73702662 -3.3203746 0 0 0 Z " fill="#13669E" transform="translate(98,82)"/>
<path d="M0 0 C3.3 0 6.6 0 10 0 C10 2.64 10 5.28 10 8 C6.7 8 3.4 8 0 8 C0 5.36 0 2.72 0 0 Z " fill="#2D6DA4" transform="translate(349,66)"/>
<path d="M0 0 C2.60662244 0.25496307 5.20905522 0.52820293 7.8125 0.8125 C8.55048828 0.88275391 9.28847656 0.95300781 10.04882812 1.02539062 C15.54974762 1.64766659 15.54974762 1.64766659 18.01171875 3.57421875 C18.50091797 4.27998047 18.50091797 4.27998047 19 5 C18.401875 5.0825 17.80375 5.165 17.1875 5.25 C14.4033704 6.20455872 13.56688858 7.57132271 12 10 C11.34 9.67 10.68 9.34 10 9 C10 8.01 10 7.02 10 6 C9.0925 5.87625 8.185 5.7525 7.25 5.625 C4.41029677 5.07890323 2.47409409 4.42736197 0 3 C0 2.01 0 1.02 0 0 Z " fill="#62B3DE" transform="translate(104,146)"/>
<path d="M0 0 C1.37478516 0.01740234 1.37478516 0.01740234 2.77734375 0.03515625 C3.69644531 0.04417969 4.61554688 0.05320312 5.5625 0.0625 C6.27277344 0.07410156 6.98304688 0.08570312 7.71484375 0.09765625 C7.71484375 2.07765625 7.71484375 4.05765625 7.71484375 6.09765625 C4.72889951 7.59062837 2.00630751 7.21520853 -1.28515625 7.09765625 C-1.94515625 6.76765625 -2.60515625 6.43765625 -3.28515625 6.09765625 C-3.32787725 4.4315372 -3.32579457 2.7638274 -3.28515625 1.09765625 C-2.28515625 0.09765625 -2.28515625 0.09765625 0 0 Z " fill="#E2EFF6" transform="translate(399.28515625,94.90234375)"/>
<path d="M0 0 C1.60875 -0.04125 3.2175 -0.0825 4.875 -0.125 C5.77992188 -0.14820312 6.68484375 -0.17140625 7.6171875 -0.1953125 C10 0 10 0 12 2 C12.1953125 4.8203125 12.1953125 4.8203125 12.125 8.125 C12.10695313 9.22070312 12.08890625 10.31640625 12.0703125 11.4453125 C12.04710937 12.28835937 12.02390625 13.13140625 12 14 C10.2175082 10.66688525 9.51207144 7.75519057 9 4 C7.02 3.34 5.04 2.68 3 2 C2.34 5.96 1.68 9.92 1 14 C0.67 14 0.34 14 0 14 C0 9.38 0 4.76 0 0 Z " fill="#B6CB88" transform="translate(325,128)"/>
<path d="M0 0 C2.475 0.495 2.475 0.495 5 1 C5 1.66 5 2.32 5 3 C5.78375 2.95875 6.5675 2.9175 7.375 2.875 C10 3 10 3 12 5 C12.22705078 6.87939453 12.22705078 6.87939453 12.1953125 9.1328125 C12.18564453 10.34130859 12.18564453 10.34130859 12.17578125 11.57421875 C12.15902344 12.41597656 12.14226562 13.25773437 12.125 14.125 C12.11597656 14.97449219 12.10695312 15.82398437 12.09765625 16.69921875 C12.07405647 18.79959884 12.03818483 20.89983444 12 23 C11.67 23 11.34 23 11 23 C11 17.72 11 12.44 11 7 C7.7 7 4.4 7 1 7 C0.67 4.69 0.34 2.38 0 0 Z " fill="#9CBE65" transform="translate(121,91)"/>
<path d="M0 0 C0.33 0 0.66 0 1 0 C1.0809313 2.60478883 1.14045434 5.20706653 1.1875 7.8125 C1.22520508 8.91948242 1.22520508 8.91948242 1.26367188 10.04882812 C1.33713463 15.46058459 1.33713463 15.46058459 -0.25 18 C-3.42610908 19.81491948 -6.41512388 19.17630538 -10 19 C-10.33 18.01 -10.66 17.02 -11 16 C-7.7 16 -4.4 16 -1 16 C-1.2475 14.7625 -1.2475 14.7625 -1.5 13.5 C-2.05896045 9.58727683 -2.06807187 5.94816827 -2 2 C-1.34 2 -0.68 2 0 2 C0 1.34 0 0.68 0 0 Z " fill="#B8CE7E" transform="translate(299,128)"/>
<path d="M0 0 C0.66 0 1.32 0 2 0 C2 1.98 2 3.96 2 6 C4.64 6 7.28 6 10 6 C10 6.66 10 7.32 10 8 C8.02 8 6.04 8 4 8 C4 8.66 4 9.32 4 10 C3.34 10 2.68 10 2 10 C2 13.3 2 16.6 2 20 C1.34 20 0.68 20 0 20 C0 13.4 0 6.8 0 0 Z " fill="#C2D37B" transform="translate(372,122)"/>
<path d="M0 0 C1.32 0 2.64 0 4 0 C4 0.66 4 1.32 4 2 C5.32 2 6.64 2 8 2 C7.67 3.98 7.34 5.96 7 8 C5.68 8 4.36 8 3 8 C3 8.66 3 9.32 3 10 C2.01 9.67 1.02 9.34 0 9 C0 6.03 0 3.06 0 0 Z " fill="#1170B6" transform="translate(98,82)"/>
<path d="M0 0 C0.33 0.66 0.66 1.32 1 2 C-1.31 2.66 -3.62 3.32 -6 4 C-6 5.65 -6 7.3 -6 9 C-4.02 9.99 -2.04 10.98 0 12 C0 12.33 0 12.66 0 13 C-2.31 13 -4.62 13 -7 13 C-7.33 12.01 -7.66 11.02 -8 10 C-8.66 10 -9.32 10 -10 10 C-10.35915493 3.65492958 -10.35915493 3.65492958 -8.9375 1.0625 C-5.98831309 -0.55479605 -3.29132441 -0.18630138 0 0 Z " fill="#BBD383" transform="translate(296,128)"/>
<path d="M0 0 C4.62 0 9.24 0 14 0 C14 0.66 14 1.32 14 2 C12.02 2 10.04 2 8 2 C8 7.61 8 13.22 8 19 C7.34 19 6.68 19 6 19 C6 13.06 6 7.12 6 1 C4.02 1 2.04 1 0 1 C0 0.67 0 0.34 0 0 Z " fill="#BECA98" transform="translate(253,123)"/>
<path d="M0 0 C2.475 0.99 2.475 0.99 5 2 C5 5.3 5 8.6 5 12 C2.69 11.34 0.38 10.68 -2 10 C-2 9.34 -2 8.68 -2 8 C-3.32 7.67 -4.64 7.34 -6 7 C-6 6.67 -6 6.34 -6 6 C-3.36 6 -0.72 6 2 6 C2 4.68 2 3.36 2 2 C1.34 2 0.68 2 0 2 C0 1.34 0 0.68 0 0 Z " fill="#1C6A95" transform="translate(128,84)"/>
<path d="M0 0 C0.66 0 1.32 0 2 0 C2.33 1.98 2.66 3.96 3 6 C3.99 6 4.98 6 6 6 C6.66 8.64 7.32 11.28 8 14 C2.98343041 12.5666944 0.98547118 10.09436048 -2 6 C-2 5.34 -2 4.68 -2 4 C-1.34 4 -0.68 4 0 4 C0 2.68 0 1.36 0 0 Z " fill="#C5D97E" transform="translate(46,104)"/>
<path d="M0 0 C0.33 0.66 0.66 1.32 1 2 C3.97 2 6.94 2 10 2 C10 1.34 10 0.68 10 0 C10.66 0 11.32 0 12 0 C12 1.32 12 2.64 12 4 C8.37 4 4.74 4 1 4 C1.66 5.32 2.32 6.64 3 8 C6.56206661 8.81870185 6.56206661 8.81870185 10 9 C10 9.33 10 9.66 10 10 C8.54257537 10.08096803 7.08387193 10.13917774 5.625 10.1875 C4.81289063 10.22230469 4.00078125 10.25710937 3.1640625 10.29296875 C2.44992187 10.19628906 1.73578125 10.09960938 1 10 C-1.29404844 6.55892734 -1.26293056 5.03160191 -1 1 C-0.67 0.67 -0.34 0.34 0 0 Z " fill="#BED17D" transform="translate(421,132)"/>
<path d="M0 0 C3.3 0 6.6 0 10 0 C10.33 1.65 10.66 3.3 11 5 C7.88135455 6.55932272 5.33704665 5.65549131 2 5 C1.34 4.34 0.68 3.68 0 3 C0 2.01 0 1.02 0 0 Z " fill="#F3FAE6" transform="translate(422,136)"/>
<path d="M0 0 C1.134375 0.020625 2.26875 0.04125 3.4375 0.0625 C4.0625 1.9375 4.0625 1.9375 4.4375 4.0625 C2.4375 6.0625 2.4375 6.0625 -0.6875 6.1875 C-2.110625 6.125625 -2.110625 6.125625 -3.5625 6.0625 C-3.94468767 4.40635343 -4.27645102 2.73792976 -4.5625 1.0625 C-3.5625 0.0625 -3.5625 0.0625 0 0 Z " fill="#F2F9DC" transform="translate(274.5625,134.9375)"/>
<path d="M0 0 C0.99 0 1.98 0 3 0 C3 7.26 3 14.52 3 22 C2.34 22 1.68 22 1 22 C1 15.4 1 8.8 1 2 C0.34 1.67 -0.32 1.34 -1 1 C-0.67 0.67 -0.34 0.34 0 0 Z " fill="#A7C96C" transform="translate(99,92)"/>
<path d="M0 0 C-0.99 0 -1.98 0 -3 0 C-3 0.66 -3 1.32 -3 2 C-3.66 2 -4.32 2 -5 2 C-5 3.32 -5 4.64 -5 6 C-2.03 6 0.94 6 4 6 C-0.21629134 8.10814567 -2.39790775 8.17700355 -7 8 C-7.33 5.69 -7.66 3.38 -8 1 C-4.93251126 -0.86240388 -3.40254489 -1.2151946 0 0 Z " fill="#346EA1" transform="translate(399,78)"/>
<path d="M0 0 C0.99 0 1.98 0 3 0 C3.33 1.98 3.66 3.96 4 6 C4.99 6.33 5.98 6.66 7 7 C6 9 6 9 2.9375 10.125 C1.968125 10.41375 0.99875 10.7025 0 11 C0 9.35 0 7.7 0 6 C0.66 6 1.32 6 2 6 C2 5.34 2 4.68 2 4 C1.34 4 0.68 4 0 4 C0 2.68 0 1.36 0 0 Z " fill="#C1DA7C" transform="translate(178,68)"/>
<path d="M0 0 C0 0.66 0 1.32 0 2 C0.66 2 1.32 2 2 2 C2 2.66 2 3.32 2 4 C-2.29 4 -6.58 4 -11 4 C-6.98844558 -0.01155442 -5.52552982 -0.12012021 0 0 Z " fill="#E8EFD3" transform="translate(76,52)"/>
<path d="M0 0 C10.74259681 3.85421412 10.74259681 3.85421412 14 8 C13.34 8.66 12.68 9.32 12 10 C11.34 9.67 10.68 9.34 10 9 C10 8.01 10 7.02 10 6 C9.0925 5.87625 8.185 5.7525 7.25 5.625 C4.41029677 5.07890323 2.47409409 4.42736197 0 3 C0 2.01 0 1.02 0 0 Z " fill="#4DA5D3" transform="translate(104,146)"/>
<path d="M0 0 C0.99 0 1.98 0 3 0 C2.67 1.32 2.34 2.64 2 4 C1.34 4 0.68 4 0 4 C0 4.66 0 5.32 0 6 C-0.66 6 -1.32 6 -2 6 C-2.268125 7.11375 -2.53625 8.2275 -2.8125 9.375 C-4 13 -4 13 -7 15 C-5.36151333 9.41425 -3.72396501 4.53858236 0 0 Z " fill="#99CCDF" transform="translate(86,24)"/>
<path d="M0 0 C2.125 0.375 2.125 0.375 4 1 C3.67 2.98 3.34 4.96 3 7 C1.35 7 -0.3 7 -2 7 C-2.125 4.625 -2.125 4.625 -2 2 C-1.34 1.34 -0.68 0.68 0 0 Z " fill="#64B7DB" transform="translate(140,137)"/>
<path d="M0 0 C0.33 0 0.66 0 1 0 C1 3.3 1 6.6 1 10 C1.99 10 2.98 10 4 10 C4 9.34 4 8.68 4 8 C5.32 8 6.64 8 8 8 C8 9.32 8 10.64 8 12 C5.36 12 2.72 12 0 12 C0 8.04 0 4.08 0 0 Z " fill="#8FBC88" transform="translate(90,86)"/>
<path d="M0 0 C3.465 1.98 3.465 1.98 7 4 C7 4.99 7 5.98 7 7 C3.7 6.34 0.4 5.68 -3 5 C-2.01 4.67 -1.02 4.34 0 4 C0 2.68 0 1.36 0 0 Z " fill="#45A4D0" transform="translate(110,24)"/>
<path d="M0 0 C2.31 0 4.62 0 7 0 C7.33 1.32 7.66 2.64 8 4 C5.03 4 2.06 4 -1 4 C-0.67 2.68 -0.34 1.36 0 0 Z " fill="#F5FBEF" transform="translate(346,130)"/>
<path d="M0 0 C0.5775 0.45375 1.155 0.9075 1.75 1.375 C3.7800333 2.84113516 5.73539843 3.94857784 8 5 C8 6.32 8 7.64 8 9 C7.01 8.67 6.02 8.34 5 8 C4.67 7.34 4.34 6.68 4 6 C1.47266765 5.34444881 1.47266765 5.34444881 -1 5 C-0.67 4.01 -0.34 3.02 0 2 C-0.66 1.67 -1.32 1.34 -2 1 C-1.34 0.67 -0.68 0.34 0 0 Z " fill="#66BBDE" transform="translate(96,17)"/>
<path d="M0 0 C0 1.65 0 3.3 0 5 C1.32 5 2.64 5 4 5 C4.33 5.99 4.66 6.98 5 8 C2.03 7.01 -0.94 6.02 -4 5 C-4 3.68 -4 2.36 -4 1 C-1 0 -1 0 0 0 Z " fill="#2F9BCB" transform="translate(102,15)"/>
<path d="M0 0 C1.98 0 3.96 0 6 0 C6.33 1.32 6.66 2.64 7 4 C4.03 4 1.06 4 -2 4 C-1.34 2.68 -0.68 1.36 0 0 Z " fill="#F3FBEA" transform="translate(424,130)"/>
<path d="M0 0 C1.98 0 3.96 0 6 0 C6.33 1.32 6.66 2.64 7 4 C4.03 4 1.06 4 -2 4 C-1.34 2.68 -0.68 1.36 0 0 Z " fill="#F3FBF1" transform="translate(394,130)"/>
<path d="M0 0 C4.41889613 1.35021826 6.34345343 3.26115668 9 7 C5.65626525 6.44271087 2.96687001 5.64826111 0 4 C0 2.68 0 1.36 0 0 Z " fill="#369DCB" transform="translate(130,20)"/>
<path d="M0 0 C0 3.96 0 7.92 0 12 C-2 8 -2 8 -2.4375 4.875 C-2.623125 3.92625 -2.80875 2.9775 -3 2 C-3.99 1.34 -4.98 0.68 -6 0 C-3 -1 -3 -1 0 0 Z " fill="#BCCF91" transform="translate(337,130)"/>
<path d="M0 0 C0.66 0.33 1.32 0.66 2 1 C1.02501855 2.5027237 0.04490611 4.00211963 -0.9375 5.5 C-1.48277344 6.3353125 -2.02804687 7.170625 -2.58984375 8.03125 C-3.05519531 8.6809375 -3.52054687 9.330625 -4 10 C-4.33 10 -4.66 10 -5 10 C-5.25 4.375 -5.25 4.375 -3 1 C-2.01 0.67 -1.02 0.34 0 0 Z " fill="#2D6DA6" transform="translate(287,78)"/>
<path d="M0 0 C0.66 0.33 1.32 0.66 2 1 C2 2.65 2 4.3 2 6 C4.97 6.495 4.97 6.495 8 7 C8 7.33 8 7.66 8 8 C2.375 8.25 2.375 8.25 -1 6 C-0.67 4.02 -0.34 2.04 0 0 Z " fill="#C5D591" transform="translate(269,135)"/>
<path d="M0 0 C2.64 0 5.28 0 8 0 C7.67 0.99 7.34 1.98 7 3 C4.36 3 1.72 3 -1 3 C-0.67 2.01 -0.34 1.02 0 0 Z " fill="#2A6499" transform="translate(324,77)"/>
<path d="M0 0 C2.31 0 4.62 0 7 0 C5.22555028 2.24606427 4.41647515 2.95081002 1.51953125 3.29296875 C0.62621094 3.25816406 -0.26710937 3.22335938 -1.1875 3.1875 C-2.08855469 3.16042969 -2.98960937 3.13335937 -3.91796875 3.10546875 C-4.94857422 3.05326172 -4.94857422 3.05326172 -6 3 C-6 2.67 -6 2.34 -6 2 C-4.02 2 -2.04 2 0 2 C0 1.34 0 0.68 0 0 Z " fill="#ECF8C5" transform="translate(154,106)"/>
<path d="M0 0 C1.98 0 3.96 0 6 0 C5.67 1.32 5.34 2.64 5 4 C3.35 4 1.7 4 0 4 C0 2.68 0 1.36 0 0 Z " fill="#057BB9" transform="translate(100,86)"/>
<path d="M0 0 C0.99 0.33 1.98 0.66 3 1 C3 1.99 3 2.98 3 4 C0.69 4 -1.62 4 -4 4 C-4 3.34 -4 2.68 -4 2 C-2.68 2 -1.36 2 0 2 C0 1.34 0 0.68 0 0 Z " fill="#ECF3D6" transform="translate(276,130)"/>
</svg>
